<?xml version="1.0" ?><!-- Uploaded to: SVG Repo, www.svgrepo.com, Generator: SVG Repo Mixer Tools -->
<svg width="800px" height="800px" viewBox="-0.06 0 60 60" data-name="remove from shopping cart" id="remove_from_shopping_cart" xmlns="http://www.w3.org/2000/svg"><defs><style>
      .cls-1 {
        fill: #d9b78b;
      }

      .cls-1, .cls-2 {
        fill-rule: evenodd;
      }

      .cls-2 {
        fill: #9f4c4c;
      }
    </style></defs><path class="cls-1" d="M1080,942h-2a2,2,0,0,0-2,2v2a2,2,0,0,0,2,2h3.05a17.576,17.576,0,0,0,1.99,4H1078a2,2,0,0,0-2,2v2a2,2,0,0,0,2,2h8a2,2,0,0,0,1.81-1.17,17.977,17.977,0,0,0,20.19.135V968a4,4,0,0,1-4,4h-44v7.418a0.6,0.6,0,0,0,.17.411,0.585,0.585,0,0,0,.41.171l2.13,0a6.975,6.975,0,0,1,12.62,0h15.38a7,7,0,1,1-.6,4h-14.19a6.973,6.973,0,0,1-13.81,0H1062v0h-2a4,4,0,0,1-4-4V934h-4a2,2,0,0,1,0-4h8v8h20.46A18.171,18.171,0,0,0,1080,942Zm12,24a2,2,0,0,0,2,2h8a2,2,0,0,0,2-2v-2a2,2,0,0,0-2-2h-8a2,2,0,0,0-2,2v2Zm-16,0a2,2,0,0,0,2,2h8a2,2,0,0,0,2-2v-2a2,2,0,0,0-2-2h-8a2,2,0,0,0-2,2v2Zm21,19.937a3,3,0,1,0-3-3A3,3,0,0,0,1097,985.937Zm-28,0a3,3,0,1,0-3-3A3,3,0,0,0,1069,985.937ZM1072,944a2,2,0,0,0-2-2h-8a2,2,0,0,0-2,2v2a2,2,0,0,0,2,2h8a2,2,0,0,0,2-2v-2Zm0,10a2,2,0,0,0-2-2h-8a2,2,0,0,0-2,2v2a2,2,0,0,0,2,2h8a2,2,0,0,0,2-2v-2Zm0,10a2,2,0,0,0-2-2h-8a2,2,0,0,0-2,2v2a2,2,0,0,0,2,2h8a2,2,0,0,0,2-2v-2Z" data-name="shopping cart" id="shopping_cart" transform="translate(-1050 -930)"/><path class="cls-2" d="M1097.87,930a12,12,0,1,1-12,12A12,12,0,0,1,1097.87,930ZM1092,944h12a2,2,0,0,0,0-4h-12A2,2,0,0,0,1092,944Z" id="remove" transform="translate(-1050 -930)"/></svg>